<svg width="142" height="98" viewBox="0 0 142 98" fill="none" xmlns="http://www.w3.org/2000/svg">
<path style="mix-blend-mode:multiply" d="M134.037 12.7481C134.221 11.1476 133.834 10.0052 133.008 9.20798C129.981 6.29261 121.066 8.01803 112.847 9.05329C32.4084 19.2333 14.5793 20.1079 10.1785 25.7066C10.131 25.7661 10.0834 25.8256 10.0418 25.8851L1.68028 37.4574C0.597927 38.9567 0.41357 40.8011 0.223267 43.2465V70.1869C0.223267 74.3398 3.58927 77.7074 7.74027 77.7074C7.74027 77.7074 10.9873 77.636 16.298 77.523L21.121 85.8169L27.7043 77.285C54.2339 76.7316 98.5925 75.8273 105.652 75.8273C107.245 75.8273 108.78 74.8337 110.231 73.1142L119.687 61.8989C119.8 61.768 119.912 61.6252 120.025 61.4824C127.447 52.0342 132.734 23.9336 134.043 12.7362L134.037 12.7481Z" fill="url(#paint0_linear_367_378)"/>
<path d="M112.841 9.05916C10.1486 22.0534 9.50628 19.8817 8.56665 31.7336V58.9478C8.56665 63.1423 11.9683 66.5456 16.155 66.5456C16.155 66.5456 19.4378 66.4742 24.796 66.3612L29.6666 74.7384L35.227 66.147C61.8755 65.5877 107.822 64.6536 115.048 64.6536C125.021 64.6536 132.443 26.3075 134.024 12.754C134.893 5.30487 123.302 7.73832 112.835 9.05916H112.841Z" fill="white"/>
<path d="M113.935 8.18703C11.2421 21.1813 10.5998 19.0096 9.66016 30.8615V58.0756C9.66016 62.2702 13.0618 65.6735 17.2485 65.6735C17.2485 65.6735 20.5313 65.6021 25.8895 65.489L30.7601 73.8663L36.3205 65.2748C62.969 64.7156 108.916 63.7814 116.141 63.7814C126.114 63.7814 133.536 25.4353 135.118 11.8818C135.986 4.43274 124.396 6.86619 113.929 8.18703H113.935Z" fill="#37C1F0"/>
<path d="M33.012 26.563H38.3089C40.1504 26.563 41.4936 26.9963 42.3385 27.8628C43.1834 28.7078 43.6059 30.0185 43.6059 31.7949V33.1923C43.6059 35.5537 42.826 37.0486 41.2661 37.6768V37.7418C42.1327 38.0018 42.7393 38.5326 43.0859 39.3342C43.4542 40.1358 43.6384 41.2082 43.6384 42.5514V46.5485C43.6384 47.1984 43.6601 47.7292 43.7034 48.1408C43.7467 48.5307 43.855 48.9207 44.0283 49.3107H40.3887C40.2587 48.9424 40.1721 48.5957 40.1287 48.2708C40.0854 47.9458 40.0637 47.3609 40.0637 46.516V42.3564C40.0637 41.3165 39.8904 40.5907 39.5438 40.1791C39.2188 39.7675 38.6447 39.5617 37.8215 39.5617H36.5866V49.3107H33.012V26.563ZM37.8865 36.312C38.6014 36.312 39.1322 36.1278 39.4788 35.7595C39.8471 35.3912 40.0313 34.7738 40.0313 33.9072V32.1524C40.0313 31.3292 39.8796 30.7334 39.5763 30.3651C39.2947 29.9968 38.8397 29.8126 38.2114 29.8126H36.5866V36.312H37.8865Z" fill="white"/>
<path d="M49.3682 26.563H59.1172V29.8126H52.9429V35.8245H57.8499V39.0742H52.9429V46.061H59.1172V49.3107H49.3682V26.563Z" fill="white"/>
<path d="M67.1856 26.563H72.0276L75.7322 49.3107H72.1575L71.5076 44.7936V44.8586H67.4455L66.7956 49.3107H63.4809L67.1856 26.563ZM71.0852 41.7714L69.4928 30.5276H69.4278L67.868 41.7714H71.0852Z" fill="white"/>
<path d="M85.6896 49.6356C83.9781 49.6356 82.6674 49.1482 81.7575 48.1733C80.8693 47.1984 80.4252 45.8227 80.4252 44.0462V31.8274C80.4252 30.051 80.8693 28.6753 81.7575 27.7004C82.6674 26.7255 83.9781 26.238 85.6896 26.238C87.4011 26.238 88.701 26.7255 89.5892 27.7004C90.4991 28.6753 90.9541 30.051 90.9541 31.8274V34.2322H87.5744V31.6C87.5744 30.1918 86.9787 29.4877 85.7871 29.4877C84.5956 29.4877 83.9998 30.1918 83.9998 31.6V44.3062C83.9998 45.6927 84.5956 46.386 85.7871 46.386C86.9787 46.386 87.5744 45.6927 87.5744 44.3062V40.829H90.9541V44.0462C90.9541 45.8227 90.4991 47.1984 89.5892 48.1733C88.701 49.1482 87.4011 49.6356 85.6896 49.6356Z" fill="white"/>
<path d="M96.3425 26.563H99.9171V35.8245H103.752V26.563H107.326V49.3107H103.752V39.0742H99.9171V49.3107H96.3425V26.563Z" fill="white"/>
<path style="mix-blend-mode:multiply" d="M133.905 61.7323C133.792 60.3162 133.685 59.2512 133.061 58.4659C130.658 55.4374 120.59 56.4786 73.0201 57.4961C68.328 57.5972 63.2492 57.3711 61.37 59.1977C61.3462 59.2155 61.3283 59.2393 61.3105 59.2572L53.6864 67.1584C53.1631 67.6999 52.9193 68.4138 53.0323 69.3598C53.9481 77.0588 58.2359 98.5909 64.0045 97.7401C68.1852 97.1213 94.7386 93.7359 110.147 91.7844L113.365 96.2765L119.502 90.6004C120.578 90.4636 121.173 90.3862 121.173 90.3862C122.184 90.2375 123.112 89.7556 123.855 89.0713L132.187 81.3902C132.222 81.3545 132.258 81.3248 132.294 81.2891C133.281 80.3312 133.911 79.0044 133.911 77.624V61.7323H133.905Z" fill="url(#paint1_linear_367_378)"/>
<path d="M73.0203 57.4901C132.984 56.2109 133.359 54.8901 133.906 61.7323V77.6241C133.906 80.0754 131.919 82.3541 129.475 82.7111C129.475 82.7111 127.56 82.955 124.426 83.3477L121.584 88.6608L118.336 84.1212C102.773 86.0965 75.9463 89.5117 71.7298 90.1364C65.9077 90.9991 61.5724 69.2468 60.6506 61.4705C60.1451 57.1986 66.9128 57.6151 73.0263 57.4842L73.0203 57.4901Z" fill="#21448F"/>
<path d="M75.0975 65.1776H78.0831L80.3674 79.2039H78.1633L77.7625 76.4187V76.4587H75.2578L74.8571 79.2039H72.8132L75.0975 65.1776ZM77.502 74.5552L76.5202 67.6221H76.4801L75.5183 74.5552H77.502Z" fill="white"/>
<path d="M85.1437 65.1776H87.3479V77.2001H90.9747V79.2039H85.1437V65.1776Z" fill="white"/>
<path d="M95.7386 65.1776H97.9427V79.2039H95.7386V65.1776Z" fill="white"/>
<path d="M103.3 65.1776H105.505V71.0886L108.31 65.1776H110.514L107.889 70.3272L110.554 79.2039H108.25L106.386 72.9521L105.505 74.7355V79.2039H103.3V65.1776Z" fill="white"/>
<path d="M115.304 65.1776H121.316V67.1813H117.508V70.8883H120.534V72.892H117.508V77.2001H121.316V79.2039H115.304V65.1776Z" fill="white"/>
<path d="M88.0128 6.8756C93.5435 5.39411 99.1456 4.22796 104.771 3.22245C107.584 2.70483 110.409 2.28239 113.246 1.86591C116.077 1.46133 118.931 1.15789 121.786 0.854456C124.652 0.646215 127.519 0.420125 130.427 0.437974C131.89 0.449873 133.394 0.551019 134.887 0.860406C135.636 1.0032 136.38 1.23524 137.111 1.52083C137.837 1.83616 138.544 2.2348 139.187 2.74647C140.465 3.79363 141.31 5.34056 141.577 6.86965C141.869 8.40468 141.797 9.89807 141.637 11.3498C141.256 14.2473 140.537 16.9961 139.9 19.7925C140.013 16.9307 140.43 14.0748 140.471 11.2725C140.495 9.88022 140.424 8.48798 140.061 7.23258C139.71 5.97719 139.032 4.92408 138.045 4.21606C137.046 3.51994 135.803 3.12131 134.494 2.90712C133.18 2.69293 131.818 2.65128 130.433 2.69293C127.638 2.74053 124.813 2.97851 121.994 3.2284C119.169 3.47829 116.344 3.77578 113.519 4.09707C110.689 4.3767 107.87 4.75154 105.033 5.05498C99.3715 5.70945 93.71 6.36392 88.0068 6.8756H88.0128Z" fill="#37C1F0"/>
<path d="M59.4078 81.8364C60.8946 84.3532 62.2327 86.9175 63.6778 89.3629C64.3974 90.5647 65.1467 91.832 65.9674 92.6471C66.3896 93.0398 66.8594 93.3254 67.3887 93.5455C67.9418 93.7359 68.5424 93.8906 69.1966 93.962C70.493 94.1286 71.8906 94.1167 73.3 94.0632C74.7035 94.0275 76.1308 93.9204 77.564 93.8371C80.4305 93.6645 83.3148 93.4563 86.2466 93.4801C83.4813 94.438 80.6624 95.1401 77.7959 95.6934C76.3627 95.9611 74.9176 96.1813 73.4427 96.3122C71.9679 96.449 70.4693 96.5085 68.8992 96.3122C68.1202 96.217 67.3054 96.0206 66.5086 95.7112C65.7176 95.3542 64.9564 94.8485 64.3617 94.2119C63.7967 93.5693 63.3447 92.8732 62.9998 92.2187C62.6371 91.5524 62.3219 90.88 62.0245 90.2077C60.8708 87.4946 59.9787 84.7161 59.4138 81.8364H59.4078Z" fill="#21448F"/>
<defs>
<linearGradient id="paint0_linear_367_378" x1="73.74" y1="21.7262" x2="37.6022" y2="101.399" gradientUnits="userSpaceOnUse">
<stop stop-color="#37C1F0"/>
<stop offset="0.12" stop-color="#37C1F0" stop-opacity="0.74"/>
<stop offset="0.25" stop-color="#82DFFF"/>
<stop offset="0.37" stop-color="#BDEEFF"/>
<stop offset="0.5" stop-color="#D6F4FF"/>
<stop offset="0.62" stop-color="#DAF6FF"/>
<stop offset="0.75" stop-color="#E2F8FF"/>
<stop offset="0.87" stop-color="#F8FDFF"/>
<stop offset="1" stop-color="white"/>
</linearGradient>
<linearGradient id="paint1_linear_367_378" x1="111.497" y1="42.6276" x2="79.2303" y2="97.8818" gradientUnits="userSpaceOnUse">
<stop stop-color="#478AFF"/>
<stop offset="0.12" stop-color="#6FA3FF"/>
<stop offset="0.26" stop-color="#9ABFFF"/>
<stop offset="0.41" stop-color="#BED6FF"/>
<stop offset="0.56" stop-color="#DBE8FF"/>
<stop offset="0.7" stop-color="#EFF4FF"/>
<stop offset="0.85" stop-color="#FBFCFF"/>
<stop offset="1" stop-color="white"/>
</linearGradient>
</defs>
</svg>
